<svg width="948" height="824" viewBox="0 0 948 824" fill="none" xmlns="http://www.w3.org/2000/svg">
<g filter="url(#filter0_d_8_263)">
<path d="M416.428 54.2383L381.889 89.3068C352.386 119.262 352.386 167.828 381.889 197.783L416.428 232.852C445.931 262.807 493.765 262.807 523.268 232.852L557.807 197.783C587.31 167.828 587.31 119.262 557.807 89.3068L523.268 54.2383C493.765 24.2833 445.931 24.2833 416.428 54.2383Z" fill="#80B2FE"/>
</g>
<g filter="url(#filter1_d_8_263)">
<path d="M196.632 517.405C161.686 517.405 126.74 503.894 100.126 476.887L63.965 440.172C38.1895 414.002 24 379.196 24 342.188C24 305.179 38.1895 270.374 63.965 244.203L100.126 207.489C125.901 181.318 160.167 166.897 196.632 166.897C233.096 166.897 267.362 181.318 293.138 207.489L329.299 244.203C355.074 270.374 369.278 305.179 369.278 342.188C369.278 379.196 355.089 414.002 329.299 440.172L293.138 476.887C266.524 503.909 231.578 517.405 196.632 517.405ZM196.632 242.882C180.837 242.882 165.042 248.991 153.007 261.195L116.847 297.91C105.203 309.732 98.7806 325.461 98.7806 342.202C98.7806 358.944 105.203 374.658 116.847 386.495L153.007 423.21C164.666 435.047 180.143 441.553 196.632 441.553C213.121 441.553 228.598 435.032 240.256 423.21L276.417 386.495C288.075 374.658 294.483 358.93 294.483 342.202C294.483 325.475 288.061 309.747 276.417 297.91L240.256 261.195C228.236 248.991 212.427 242.882 196.632 242.882V242.882Z" fill="#F2F5F8"/>
</g>
<g filter="url(#filter2_d_8_263)">
<path d="M474.593 799.772C438.201 799.772 403.978 785.379 378.246 759.253L341.767 722.215C288.64 668.274 288.64 580.511 341.767 526.569L654.992 208.561C680.724 182.434 714.947 168.042 751.339 168.042C787.732 168.042 821.954 182.434 847.686 208.561L884.165 245.599C937.278 299.54 937.278 387.303 884.165 441.23L570.94 759.253C545.208 785.379 510.985 799.772 474.593 799.772V799.772ZM751.339 243.983C734.922 243.983 719.489 250.474 707.888 262.267L394.663 580.291C370.696 604.625 370.696 644.218 394.663 668.553L431.142 705.591C442.757 717.384 458.19 723.875 474.608 723.875C491.025 723.875 506.458 717.384 518.058 705.591L831.284 387.567C855.251 363.233 855.251 323.639 831.284 299.32L794.805 262.282C783.19 250.489 767.756 243.998 751.354 243.998L751.339 243.983Z" fill="#F2F5F8"/>
</g>
<defs>
<filter id="filter0_d_8_263" x="335.761" y="7.77203" width="268.173" height="271.546" filterUnits="userSpaceOnUse" color-interpolation-filters="sRGB">
<feFlood flood-opacity="0" result="BackgroundImageFix"/>
<feColorMatrix in="SourceAlpha" type="matrix" values="0 0 0 0 0 0 0 0 0 0 0 0 0 0 0 0 0 0 127 0" result="hardAlpha"/>
<feOffset/>
<feGaussianBlur stdDeviation="12"/>
<feComposite in2="hardAlpha" operator="out"/>
<feColorMatrix type="matrix" values="0 0 0 0 0 0 0 0 0 0 0 0 0 0 0 0 0 0 0.2 0"/>
<feBlend mode="normal" in2="BackgroundImageFix" result="effect1_dropShadow_8_263"/>
<feBlend mode="normal" in="SourceGraphic" in2="effect1_dropShadow_8_263" result="shape"/>
</filter>
<filter id="filter1_d_8_263" x="0" y="142.897" width="393.278" height="398.509" filterUnits="userSpaceOnUse" color-interpolation-filters="sRGB">
<feFlood flood-opacity="0" result="BackgroundImageFix"/>
<feColorMatrix in="SourceAlpha" type="matrix" values="0 0 0 0 0 0 0 0 0 0 0 0 0 0 0 0 0 0 127 0" result="hardAlpha"/>
<feOffset/>
<feGaussianBlur stdDeviation="12"/>
<feComposite in2="hardAlpha" operator="out"/>
<feColorMatrix type="matrix" values="0 0 0 0 0 0 0 0 0 0 0 0 0 0 0 0 0 0 0.2 0"/>
<feBlend mode="normal" in2="BackgroundImageFix" result="effect1_dropShadow_8_263"/>
<feBlend mode="normal" in="SourceGraphic" in2="effect1_dropShadow_8_263" result="shape"/>
</filter>
<filter id="filter2_d_8_263" x="277.921" y="144.042" width="670.079" height="679.729" filterUnits="userSpaceOnUse" color-interpolation-filters="sRGB">
<feFlood flood-opacity="0" result="BackgroundImageFix"/>
<feColorMatrix in="SourceAlpha" type="matrix" values="0 0 0 0 0 0 0 0 0 0 0 0 0 0 0 0 0 0 127 0" result="hardAlpha"/>
<feOffset/>
<feGaussianBlur stdDeviation="12"/>
<feComposite in2="hardAlpha" operator="out"/>
<feColorMatrix type="matrix" values="0 0 0 0 0 0 0 0 0 0 0 0 0 0 0 0 0 0 0.2 0"/>
<feBlend mode="normal" in2="BackgroundImageFix" result="effect1_dropShadow_8_263"/>
<feBlend mode="normal" in="SourceGraphic" in2="effect1_dropShadow_8_263" result="shape"/>
</filter>
</defs>
</svg>
