<svg width="153" height="40" viewBox="0 0 153 40" fill="none" xmlns="http://www.w3.org/2000/svg">
<g clip-path="url(#clip0_8_300)">
<path d="M20.4935 1.17014L18.6897 2.99662C17.149 4.55678 17.149 7.08629 18.6897 8.64645L20.4935 10.4729C22.0342 12.0331 24.5322 12.0331 26.0729 10.4729L27.8766 8.64644C29.4173 7.08629 29.4173 4.55678 27.8766 2.99662L26.0729 1.17014C24.5322 -0.390019 22.0342 -0.390018 20.4935 1.17014Z" fill="#297DFC"/>
<path d="M9.01522 25.2934C7.19027 25.2934 5.36532 24.5897 3.97546 23.1831L2.08706 21.2709C0.741008 19.9078 0 18.0951 0 16.1675C0 14.24 0.741008 12.4272 2.08706 11.0642L3.97546 9.15194C5.32151 7.7889 7.11096 7.03778 9.01522 7.03778C10.9195 7.03778 12.7089 7.7889 14.055 9.15194L15.9434 11.0642C17.2894 12.4272 18.0312 14.24 18.0312 16.1675C18.0312 18.0951 17.2902 19.9078 15.9434 21.2709L14.055 23.1831C12.6651 24.5905 10.8402 25.2934 9.01522 25.2934ZM9.01522 10.9953C8.19037 10.9953 7.36551 11.3135 6.73705 11.9491L4.84865 13.8614C4.24059 14.4771 3.90521 15.2963 3.90521 16.1683C3.90521 17.0403 4.24059 17.8587 4.84865 18.4752L6.73705 20.3874C7.34587 21.0039 8.15411 21.3428 9.01522 21.3428C9.87633 21.3428 10.6846 21.0032 11.2934 20.3874L13.1818 18.4752C13.7906 17.8587 14.1252 17.0395 14.1252 16.1683C14.1252 15.2971 13.7898 14.4779 13.1818 13.8614L11.2934 11.9491C10.6657 11.3135 9.84007 10.9953 9.01522 10.9953Z" fill="#2E3438"/>
<path d="M23.531 40C21.6305 40 19.8433 39.2504 18.4995 37.8896L16.5945 35.9606C13.8201 33.1511 13.8201 28.5802 16.5945 25.7707L32.9518 9.20775C34.2956 7.84701 36.0828 7.09741 37.9833 7.09741C39.8838 7.09741 41.6709 7.84701 43.0147 9.20775L44.9197 11.1368C47.6934 13.9463 47.6934 18.5172 44.9197 21.3259L28.5624 37.8896C27.2186 39.2504 25.4315 40 23.531 40ZM37.9833 11.0527C37.1259 11.0527 36.32 11.3907 35.7142 12.005L19.3569 28.5687C18.1052 29.8361 18.1052 31.8983 19.3569 33.1657L21.2619 35.0947C21.8684 35.7089 22.6744 36.047 23.5317 36.047C24.3891 36.047 25.195 35.7089 25.8008 35.0947L42.1581 18.531C43.4098 17.2636 43.4098 15.2014 42.1581 13.9348L40.2531 12.0057C39.6466 11.3915 38.8406 11.0534 37.984 11.0534L37.9833 11.0527Z" fill="#2E3438"/>
</g>
<path d="M85.912 4.668H90.008V26.78H85.912V4.668ZM81.272 22.94L73.56 17.276C71.992 19.612 69.624 21.66 66.392 23.58L64.312 20.412C69.592 17.116 71.832 13.916 71.896 9.724H65.496V6.108H82.296V9.724H75.864C75.864 11.196 75.64 12.572 75.224 13.884L83.448 19.708L81.272 22.94ZM73.816 24.892V30.844H91.096V34.556H69.72V24.892H73.816ZM115.616 14.524V4.668H119.712V34.556H115.616V18.268H109.12V14.524H115.616ZM105.248 6.332V10.428C105.248 12.86 104.96 15.164 104.416 17.372L112.8 27.676L109.76 30.268L102.848 21.82C101.44 24.892 99.3598 27.772 96.6078 30.556L93.7278 27.868C99.0078 22.492 101.248 17.18 101.248 10.428V6.332H105.248ZM145.32 18.332H139.912V21.532H124.808V6.108H139.912V8.54H145.32V4.668H149.448V26.78H145.32V18.332ZM128.776 17.948H135.944V9.692H128.776V17.948ZM145.32 15.1V11.804H139.912V15.1H145.32ZM133.224 24.892V30.844H150.536V34.556H129.16V24.892H133.224Z" fill="#2E3438"/>
<defs>
<clipPath id="clip0_8_300">
<rect width="47" height="40" fill="white"/>
</clipPath>
</defs>
</svg>
